Hanif_Shallow_5_0_grf.mot
version=1
nRows=37
nColumns=19
inDegrees=yes
endheader
time	right_ground_force_vx	right_ground_force_vy	right_ground_force_vz	right_ground_force_px	right_ground_force_py	right_ground_force_pz	right_ground_torque_x	right_ground_torque_y	right_ground_torque_z	left_ground_force_vx	left_ground_force_vy	left_ground_force_vz	left_ground_force_px	left_ground_force_py	left_ground_force_pz	left_ground_torque_x	left_ground_torque_y	left_ground_torque_z
2.300000	6.591940	269.758000	57.306800	0.193321	0.000000	-1.438080	-18.297800	1.790090	-1.597850	-0.491006	295.245000	-61.171000	0.196312	0.000000	-0.970349	19.888400	-2.598290	-0.590343
2.305000	6.443090	269.758000	57.384200	0.192711	0.000000	-1.437920	-18.342500	1.845340	-1.756070	-1.061380	294.871000	-60.772100	0.196131	0.000000	-0.970222	19.830400	-2.564420	-0.646017
2.310000	6.217540	269.227000	57.589200	0.192278	0.000000	-1.438540	-18.136900	1.911180	-1.854890	-1.593450	292.631000	-60.086300	0.197075	0.000000	-0.970816	19.858200	-2.471160	-0.362409
2.315000	5.908590	268.335000	57.560200	0.191835	0.000000	-1.437420	-18.381700	1.811710	-1.990060	-1.963520	292.636000	-59.754700	0.196947	0.000000	-0.970897	19.885400	-2.456710	-0.401937
2.320000	5.271430	267.931000	57.669500	0.192202	0.000000	-1.438420	-18.085800	1.824950	-1.869900	-2.354570	290.859000	-59.551900	0.196962	0.000000	-0.971418	19.920300	-2.526700	-0.370383
2.325000	5.366610	268.303000	57.057200	0.192448	0.000000	-1.438380	-18.123300	1.771900	-1.818160	-2.198300	293.239000	-58.808300	0.196354	0.000000	-0.971061	19.976800	-2.541380	-0.572545
2.330000	5.033390	267.220000	57.235700	0.192545	0.000000	-1.438880	-17.917800	1.776220	-1.775370	-2.502880	293.294000	-59.380300	0.196552	0.000000	-0.970383	19.784800	-2.581390	-0.495867
2.335000	4.505000	268.193000	57.157900	0.192990	0.000000	-1.438150	-18.177600	1.806990	-1.645480	-2.168000	294.347000	-58.809700	0.196144	0.000000	-0.971114	20.067600	-2.577690	-0.635794
2.340000	3.932980	267.608000	56.795500	0.192875	0.000000	-1.438080	-18.160100	1.790000	-1.669390	-1.008490	295.415000	-59.471600	0.196065	0.000000	-0.970465	19.938400	-2.584370	-0.675620
2.345000	3.701580	268.862000	56.100100	0.192967	0.000000	-1.438510	-18.132100	1.692100	-1.672370	-0.407941	295.718000	-59.422900	0.195743	0.000000	-0.970864	20.072000	-2.814620	-0.738428
2.350000	3.211300	269.789000	56.253400	0.193167	0.000000	-1.437650	-18.425800	1.848540	-1.584040	0.553878	293.701000	-59.944800	0.194497	0.000000	-0.969864	19.633300	-2.822570	-1.115170
2.355000	3.148530	268.724000	55.625200	0.193948	0.000000	-1.437980	-18.262600	1.800830	-1.367660	0.783869	294.051000	-60.447300	0.194139	0.000000	-0.970380	19.806500	-2.866340	-1.217780
2.360000	3.315520	268.780000	55.618900	0.194028	0.000000	-1.437400	-18.423200	1.800780	-1.348290	1.039370	294.249000	-60.669400	0.193977	0.000000	-0.969247	19.484400	-2.929010	-1.257830
2.365000	2.042140	269.434000	55.269000	0.193851	0.000000	-1.438070	-18.292000	1.841950	-1.376950	0.692807	293.896000	-61.030900	0.193668	0.000000	-0.969764	19.615800	-2.983090	-1.331370
2.370000	2.599960	268.588000	55.455800	0.194256	0.000000	-1.437230	-18.457200	1.829550	-1.267800	0.501569	293.944000	-60.855000	0.193590	0.000000	-0.970345	19.791500	-2.910960	-1.369290
2.375000	2.204650	267.760000	55.265700	0.194109	0.000000	-1.437050	-18.451700	1.802880	-1.303880	0.396209	293.639000	-61.055900	0.193550	0.000000	-0.969873	19.633300	-2.876510	-1.383120
2.380000	1.853030	268.528000	55.377100	0.194486	0.000000	-1.437310	-18.436200	1.828940	-1.192820	0.375109	292.602000	-60.930200	0.192590	0.000000	-0.969074	19.330200	-3.004980	-1.641730
2.385000	1.250700	271.297000	55.338900	0.194557	0.000000	-1.437030	-18.705300	1.957760	-1.156480	-0.006828	291.969000	-60.818400	0.192391	0.000000	-0.969365	19.376500	-3.028120	-1.687030
2.390000	1.685680	269.622000	55.464400	0.193485	0.000000	-1.436610	-18.698700	1.935910	-1.456820	0.382282	292.110000	-60.993800	0.192467	0.000000	-0.969318	19.368800	-3.056170	-1.663640
2.395000	1.733930	272.901000	55.700800	0.193998	0.000000	-1.437300	-18.739000	2.008520	-1.320630	0.413305	290.519000	-60.708900	0.192183	0.000000	-0.970216	19.523900	-3.031530	-1.742420
2.400000	1.479650	271.232000	55.655300	0.193637	0.000000	-1.437700	-18.515800	1.927170	-1.423730	0.151646	290.378000	-60.206300	0.192287	0.000000	-0.969667	19.357400	-3.028430	-1.710100
2.405000	1.915020	270.598000	55.057300	0.193385	0.000000	-1.437580	-18.504000	2.002680	-1.483170	0.163858	290.878000	-59.937400	0.191875	0.000000	-0.969386	19.308900	-3.072840	-1.832830
2.410000	1.560550	270.678000	55.098100	0.193081	0.000000	-1.437700	-18.477700	2.009900	-1.562910	-0.187822	290.781000	-59.835000	0.191847	0.000000	-0.969336	19.291100	-3.090700	-1.832590
2.415000	2.304130	270.977000	55.150400	0.192681	0.000000	-1.436740	-18.754500	2.116460	-1.667260	-0.432435	290.212000	-59.341000	0.191637	0.000000	-0.969972	19.439800	-3.093150	-1.890040
2.420000	2.151450	269.361000	54.659700	0.192475	0.000000	-1.436950	-18.587300	2.151560	-1.704080	-0.413103	291.024000	-59.093000	0.191916	0.000000	-0.969565	19.375700	-3.106980	-1.813220
2.425000	2.183430	268.247000	54.949200	0.192267	0.000000	-1.437280	-18.422200	2.013680	-1.779560	-0.708893	290.424000	-59.237800	0.191948	0.000000	-0.970141	19.506000	-3.123910	-1.788870
2.430000	1.687250	264.231000	54.541500	0.191905	0.000000	-1.437210	-18.166500	1.967070	-1.847960	-1.366420	291.201000	-58.709800	0.191603	0.000000	-0.969686	19.431700	-3.090050	-1.903170
2.435000	1.802500	266.838000	54.130300	0.191623	0.000000	-1.438120	-18.103300	2.070770	-1.932000	-1.633650	291.122000	-58.082400	0.191965	0.000000	-0.970099	19.549100	-3.031280	-1.805510
2.440000	2.218100	265.582000	53.570300	0.191250	0.000000	-1.437090	-18.288200	2.116080	-2.022520	-2.127900	292.435000	-58.242000	0.192425	0.000000	-0.970428	19.738000	-3.018860	-1.673170
2.445000	2.443910	264.482000	52.762100	0.190603	0.000000	-1.437320	-18.151400	2.067860	-2.205150	-2.295160	291.197000	-57.355300	0.192663	0.000000	-0.970717	19.741000	-3.058670	-1.586190
2.450000	2.546450	261.699000	52.832300	0.190183	0.000000	-1.437010	-18.041300	2.059500	-2.293550	-2.385760	292.037000	-57.508900	0.192445	0.000000	-0.970583	19.759100	-3.018700	-1.665570
2.455000	2.416390	261.581000	52.742600	0.190953	0.000000	-1.437210	-17.981600	2.064960	-2.080000	-2.532430	291.204000	-57.310100	0.193097	0.000000	-0.970580	19.703900	-3.017920	-1.460430
2.460000	2.784760	258.601000	52.236600	0.190473	0.000000	-1.436040	-18.079900	1.892500	-2.221290	-2.760530	291.083000	-57.248000	0.192841	0.000000	-0.971401	19.936800	-3.009490	-1.535430
2.465000	2.745730	257.575000	51.628700	0.190671	0.000000	-1.435560	-18.131600	1.801030	-2.177260	-1.636650	292.143000	-57.272800	0.193105	0.000000	-0.970840	19.834000	-2.973600	-1.486990
2.470000	2.383900	254.476000	49.757700	0.189973	0.000000	-1.434680	-18.139800	1.767860	-2.336690	-1.215650	294.073000	-57.169400	0.193379	0.000000	-0.971008	20.010900	-3.099620	-1.401850
2.475000	1.967090	253.622000	49.748200	0.190641	0.000000	-1.436540	-17.606300	1.828540	-2.133180	-1.061320	293.118000	-57.301300	0.194038	0.000000	-0.971406	20.061100	-3.031890	-1.207400
2.480000	2.258900	250.004000	48.538400	0.191004	0.000000	-1.434700	-17.815000	1.745140	-2.026350	-2.055590	292.257000	-57.385900	0.193802	0.000000	-0.972013	20.188900	-2.962310	-1.271760
